<svg id="alert" xmlns="http://www.w3.org/2000/svg" width="16" height="16" viewBox="0 0 16 16">
  <rect id="Rectangle_21" data-name="Rectangle 21" width="16" height="16" fill="none"/>
  <path id="warning-24px" d="M4.148,17.268h12.64a1.564,1.564,0,0,0,1.452-2.342L11.921,4.771a1.743,1.743,0,0,0-2.9,0L2.7,14.926A1.564,1.564,0,0,0,4.148,17.268Zm6.32-5.464a.814.814,0,0,1-.839-.781V9.462a.842.842,0,0,1,1.679,0v1.561A.814.814,0,0,1,10.469,11.8Zm.839,3.122a1.35,1.35,0,0,1-1.679,0,1.125,1.125,0,0,1,0-1.561,1.35,1.35,0,0,1,1.679,0A1.125,1.125,0,0,1,11.308,14.926Z" transform="translate(-2.469 -2.268)" fill="#ee9049"/>
</svg>
