<?xml version="1.0" standalone="no"?>
<!DOCTYPE svg PUBLIC "-//W3C//DTD SVG 20010904//EN"
 "http://www.w3.org/TR/2001/REC-SVG-20010904/DTD/svg10.dtd">
<svg version="1.0" xmlns="http://www.w3.org/2000/svg"
 width="700.000000pt" height="700.000000pt" viewBox="0 0 700.000000 700.000000"
 preserveAspectRatio="xMidYMid meet">
<metadata>
Created by potrace 1.11, written by Peter Selinger 2001-2013
</metadata>
<g transform="translate(0.000000,700.000000) scale(0.100000,-0.100000)"
fill="#000000" stroke="none">
<path d="M3516 6558 c3 -5 10 -6 15 -3 13 9 11 12 -6 12 -8 0 -12 -4 -9 -9z"/>
<path d="M3555 6540 c3 -5 8 -10 11 -10 2 0 4 5 4 10 0 6 -5 10 -11 10 -5 0
-7 -4 -4 -10z"/>
<path d="M3470 6530 c-8 -5 -19 -6 -25 -3 -5 4 -7 3 -3 -2 10 -11 -50 -47 -64
-39 -7 5 -8 2 -3 -6 6 -10 4 -12 -9 -7 -10 4 -15 3 -11 -3 3 -6 -2 -13 -12
-17 -10 -4 -40 -19 -66 -35 -53 -31 -62 -34 -51 -16 4 7 3 8 -5 4 -6 -4 -9
-11 -6 -16 3 -5 -4 -14 -15 -20 -11 -6 -20 -8 -20 -5 0 3 -10 -4 -22 -15 -12
-11 -29 -18 -37 -15 -9 3 -12 3 -8 -1 10 -10 -52 -46 -65 -38 -7 4 -8 2 -4 -4
4 -7 -10 -19 -36 -32 -54 -26 -81 -42 -90 -55 -4 -5 -8 -6 -8 -2 0 4 -19 -5
-42 -21 -24 -16 -58 -35 -75 -43 -18 -8 -33 -18 -33 -23 0 -4 -7 -5 -16 -2 -8
3 -13 2 -10 -2 7 -12 -92 -64 -106 -56 -6 4 -8 3 -4 -4 3 -6 -2 -15 -11 -21
-13 -7 -23 -5 -38 7 -18 16 -19 16 -6 0 16 -21 5 -42 -17 -33 -9 3 -13 3 -9
-1 10 -10 -52 -46 -66 -38 -7 4 -9 4 -5 -1 5 -5 -4 -16 -20 -25 -79 -48 -124
-70 -134 -64 -7 4 -8 2 -4 -4 4 -7 -2 -16 -16 -22 -13 -6 -38 -19 -55 -30 -18
-11 -33 -16 -33 -12 0 4 -6 0 -13 -9 -18 -24 -107 -70 -119 -63 -7 4 -8 2 -4
-4 3 -6 -2 -16 -12 -21 -19 -10 -37 -61 -21 -61 9 0 4 -53 -6 -70 -3 -5 -2
-10 2 -10 9 0 9 -20 0 -82 -2 -16 -1 -28 3 -28 8 0 5 -44 -5 -59 -3 -6 -1 -11
6 -11 7 0 5 -8 -7 -22 -10 -12 -14 -18 -8 -15 16 9 25 -28 11 -42 -8 -8 -8
-11 0 -11 11 0 10 -41 -2 -59 -3 -6 -1 -11 6 -11 7 0 5 -8 -7 -22 -10 -12 -14
-18 -8 -15 16 9 25 -28 11 -42 -6 -6 -7 -11 -1 -11 10 0 10 -91 0 -109 -4 -6
-3 -11 2 -11 13 0 8 -36 -9 -56 -8 -10 -9 -15 -3 -11 7 4 14 0 18 -8 3 -8 2
-15 -3 -15 -4 0 -8 -7 -8 -15 0 -8 3 -15 6 -15 8 0 5 -95 -3 -109 -4 -6 -4
-11 1 -11 7 0 8 -28 4 -73 -1 -5 -5 -6 -10 -2 -5 3 -13 1 -16 -5 -4 -6 -3 -10
2 -9 25 4 35 -2 25 -14 -6 -7 -7 -18 -2 -27 4 -7 4 -24 0 -36 -6 -15 -5 -26 1
-30 8 -4 7 -9 -2 -15 -8 -5 -9 -9 -4 -9 9 0 10 -51 2 -112 -3 -16 -1 -28 2
-28 8 0 5 -95 -3 -109 -4 -6 -2 -11 5 -11 8 0 9 -4 0 -13 -8 -10 -7 -17 1 -25
7 -7 8 -12 2 -12 -6 0 -11 -7 -11 -15 0 -8 3 -15 6 -15 8 0 5 -65 -4 -79 -3
-6 -2 -11 4 -11 6 0 8 -7 5 -15 -4 -8 -10 -13 -14 -10 -5 3 -12 1 -15 -5 -4
-6 -3 -10 2 -9 25 4 32 -3 28 -31 -3 -28 1 -33 71 -71 41 -22 72 -45 69 -50
-4 -5 0 -6 8 -3 8 3 21 -1 28 -9 8 -7 37 -24 66 -37 29 -13 50 -27 47 -31 -2
-4 6 -9 18 -11 13 -2 22 -9 20 -16 -1 -8 2 -11 7 -8 15 10 61 -16 61 -33 0
-14 2 -14 10 -1 9 13 14 7 11 -12 0 -4 7 -4 16 -1 12 5 14 3 8 -7 -5 -9 -4
-11 3 -6 18 11 35 -3 23 -18 -8 -9 -7 -13 4 -13 8 0 12 4 9 9 -3 4 2 8 11 8 9
0 14 -4 10 -9 -3 -5 5 -11 17 -13 13 -2 22 -9 21 -15 -2 -7 3 -10 10 -7 8 3
19 -5 26 -18 6 -13 9 -15 7 -5 -6 20 -2 21 16 4 7 -6 40 -26 73 -44 33 -17 59
-36 58 -41 -2 -6 5 -10 15 -10 9 1 36 -10 59 -25 24 -15 47 -27 53 -27 5 0 10
-5 10 -11 0 -5 -5 -7 -12 -3 -7 4 -8 3 -4 -5 6 -9 11 -9 21 -1 7 6 15 7 17 3
1 -4 17 -16 33 -25 17 -10 29 -22 28 -27 -2 -6 4 -8 13 -4 9 3 19 2 23 -4 3
-5 23 -17 44 -26 20 -10 37 -22 37 -27 0 -6 3 -10 8 -9 13 2 52 -13 52 -20 0
-4 16 -13 35 -21 19 -7 32 -17 29 -22 -3 -4 2 -8 12 -8 9 0 23 -8 31 -17 9
-11 11 -12 7 -3 -6 11 -2 10 13 -3 11 -9 23 -14 26 -10 4 3 7 -1 7 -10 0 -9 3
-16 8 -16 32 5 41 -2 37 -31 -2 -17 0 -28 5 -25 5 3 7 12 3 20 -8 21 9 19 57
-9 43 -24 73 -24 98 1 8 7 18 11 23 8 5 -4 9 -1 9 5 0 6 10 15 23 20 12 6 29
14 37 20 57 37 152 90 161 90 6 0 9 -7 6 -15 -4 -8 -2 -17 2 -19 5 -3 8 6 7
21 -1 19 7 30 31 43 17 9 43 24 57 33 14 9 31 17 37 17 7 0 17 6 23 14 6 7 40
29 76 48 36 19 78 43 93 52 15 10 33 16 41 13 10 -4 13 -1 10 8 -3 8 4 16 18
21 13 4 24 6 26 5 1 0 11 8 23 20 21 21 77 46 92 41 5 -1 6 2 2 7 -3 6 3 15
14 21 13 7 22 7 26 0 6 -9 0 -13 -16 -12 -3 1 -6 -6 -6 -14 0 -12 3 -11 18 2
10 9 15 23 12 32 -5 12 -2 14 11 9 9 -4 15 -3 12 1 -5 8 49 45 58 40 2 -2 15
6 28 18 34 29 58 36 77 22 14 -12 14 -11 2 4 -12 16 -10 19 12 27 14 5 28 15
32 20 3 6 11 11 17 11 6 0 5 -7 -3 -17 -7 -10 4 -1 24 20 29 28 44 36 63 33
14 -3 22 -1 19 5 -4 5 -11 7 -16 4 -5 -4 -9 -4 -9 -1 0 3 23 15 50 28 28 13
50 26 50 30 0 5 4 8 9 8 21 0 111 64 112 79 1 9 2 28 3 43 0 14 4 30 8 34 4 4
3 13 -3 21 -9 10 -8 17 2 30 10 11 10 14 2 9 -9 -5 -13 0 -13 14 0 12 4 19 9
15 5 -3 13 -1 16 5 4 6 1 9 -6 8 -14 -4 -23 68 -9 77 6 3 10 12 10 18 0 9 -2
9 -8 -1 -5 -6 -8 57 -8 142 1 85 4 158 9 162 4 4 7 12 7 18 0 7 -4 6 -8 -2 -5
-6 -8 57 -8 142 1 85 4 158 9 162 4 4 7 12 7 18 0 7 -4 6 -8 -2 -5 -6 -8 57
-8 142 1 85 4 158 9 162 4 4 7 12 7 18 0 6 -4 5 -9 -2 -4 -7 -7 25 -7 75 1 48
5 94 10 102 6 10 5 12 -2 7 -8 -5 -12 1 -12 14 0 12 4 19 9 15 5 -3 13 -1 16
5 4 6 1 9 -6 8 -10 -2 -13 21 -15 94 -1 98 -9 118 -44 126 -8 2 -17 7 -20 10
-3 4 -25 18 -50 31 -25 14 -48 29 -51 34 -3 5 -9 8 -13 8 -16 -3 -66 31 -60
41 4 7 3 8 -4 4 -14 -8 -72 20 -72 35 0 6 -4 7 -10 4 -16 -10 -33 5 -21 19 8
9 7 13 -4 13 -8 0 -12 -4 -9 -9 3 -4 1 -8 -5 -8 -5 0 -14 7 -19 16 -5 9 -12
15 -15 15 -18 -3 -27 0 -39 12 -7 7 -24 18 -38 25 -87 45 -100 53 -100 62 0 6
-9 10 -20 10 -23 0 -25 10 -7 30 6 8 2 6 -10 -3 -13 -11 -23 -14 -27 -8 -4 5
-19 16 -34 24 -79 41 -112 62 -112 69 0 5 -4 7 -9 3 -5 -3 -15 1 -23 8 -7 6
-40 27 -73 44 -33 18 -59 37 -57 43 1 6 -3 10 -10 9 -23 -3 -34 1 -54 19 -11
9 -26 18 -34 20 -7 2 -33 15 -57 29 -33 19 -41 28 -33 38 7 9 5 16 -7 26 -16
13 -17 12 -5 -3 19 -24 -2 -32 -38 -13 -18 9 -28 21 -24 27 4 7 3 8 -4 4 -16
-10 -74 22 -66 36 4 6 3 8 -4 5 -13 -9 -93 33 -86 45 3 5 0 8 -7 7 -8 -2 -28
4 -45 13 -19 10 -35 13 -44 8z"/>
<path d="M3399 6513 c-13 -16 -12 -17 4 -4 9 7 17 15 17 17 0 8 -8 3 -21 -13z"/>
<path d="M3590 6500 c0 -5 5 -10 11 -10 5 0 7 5 4 10 -3 6 -8 10 -11 10 -2 0
-4 -4 -4 -10z"/>
<path d="M3265 6480 c-3 -6 1 -7 9 -4 18 7 21 14 7 14 -6 0 -13 -4 -16 -10z"/>
<path d="M3665 6480 c-3 -6 1 -7 9 -4 18 7 21 14 7 14 -6 0 -13 -4 -16 -10z"/>
<path d="M3715 6480 c-3 -5 -1 -10 4 -10 6 0 11 5 11 10 0 6 -2 10 -4 10 -3 0
-8 -4 -11 -10z"/>
<path d="M2990 6406 c0 -2 7 -7 16 -10 8 -3 12 -2 9 4 -6 10 -25 14 -25 6z"/>
<path d="M3150 6401 c0 -6 4 -13 10 -16 6 -3 7 1 4 9 -7 18 -14 21 -14 7z"/>
<path d="M3076 6367 c3 -10 9 -15 12 -12 3 3 0 11 -7 18 -10 9 -11 8 -5 -6z"/>
<path d="M3955 6371 c-3 -5 -2 -12 3 -15 5 -3 9 1 9 9 0 17 -3 19 -12 6z"/>
<path d="M3110 6360 c0 -5 5 -10 11 -10 5 0 7 5 4 10 -3 6 -8 10 -11 10 -2 0
-4 -4 -4 -10z"/>
<path d="M3873 6335 c0 -8 4 -12 9 -9 5 3 6 10 3 15 -9 13 -12 11 -12 -6z"/>
<path d="M3006 6322 c-3 -5 1 -9 9 -9 8 0 12 4 9 9 -3 4 -7 8 -9 8 -2 0 -6 -4
-9 -8z"/>
<path d="M2993 6285 c0 -8 4 -12 9 -9 5 3 6 10 3 15 -9 13 -12 11 -12 -6z"/>
<path d="M2959 6273 c-13 -16 -12 -17 4 -4 9 7 17 15 17 17 0 8 -8 3 -21 -13z"/>
<path d="M2896 6261 c-3 -4 6 -7 19 -7 14 0 22 2 19 5 -8 8 -34 10 -38 2z"/>
<path d="M4110 6261 c0 -6 4 -13 10 -16 6 -3 7 1 4 9 -7 18 -14 21 -14 7z"/>
<path d="M2816 6222 c-2 -4 -1 -14 4 -22 7 -11 9 -9 7 8 -1 24 -3 26 -11 14z"/>
<path d="M4130 6220 c0 -5 5 -10 11 -10 5 0 7 5 4 10 -3 6 -8 10 -11 10 -2 0
-4 -4 -4 -10z"/>
<path d="M4200 6200 c-9 -6 -10 -10 -3 -10 6 0 15 5 18 10 8 12 4 12 -15 0z"/>
<path d="M2714 6182 c4 -3 14 -7 22 -8 9 -1 13 0 10 4 -4 3 -14 7 -22 8 -9 1
-13 0 -10 -4z"/>
<path d="M4185 6160 c-3 -6 1 -7 9 -4 18 7 21 14 7 14 -6 0 -13 -4 -16 -10z"/>
<path d="M2695 6140 c-3 -5 -1 -10 4 -10 6 0 11 5 11 10 0 6 -2 10 -4 10 -3 0
-8 -4 -11 -10z"/>
<path d="M4275 6140 c-3 -5 -1 -10 4 -10 6 0 11 5 11 10 0 6 -2 10 -4 10 -3 0
-8 -4 -11 -10z"/>
<path d="M2629 6083 c-13 -16 -12 -17 4 -4 9 7 17 15 17 17 0 8 -8 3 -21 -13z"/>
<path d="M4355 6081 c-3 -5 -2 -12 3 -15 5 -3 9 1 9 9 0 17 -3 19 -12 6z"/>
<path d="M4390 6036 c7 -7 13 -7 20 0 6 6 3 10 -10 10 -13 0 -16 -4 -10 -10z"/>
<path d="M2396 6007 c3 -10 9 -15 12 -12 3 3 0 11 -7 18 -10 9 -11 8 -5 -6z"/>
<path d="M2470 5999 c0 -5 5 -7 10 -4 6 3 10 8 10 11 0 2 -4 4 -10 4 -5 0 -10
-5 -10 -11z"/>
<path d="M2505 6000 c-3 -6 1 -7 9 -4 18 7 21 14 7 14 -6 0 -13 -4 -16 -10z"/>
<path d="M2385 5960 c-3 -6 1 -7 9 -4 18 7 21 14 7 14 -6 0 -13 -4 -16 -10z"/>
<path d="M2353 5915 c0 -8 4 -12 9 -9 5 3 6 10 3 15 -9 13 -12 11 -12 -6z"/>
<path d="M2320 5900 c-9 -6 -10 -10 -3 -10 6 0 15 5 18 10 8 12 4 12 -15 0z"/>
<path d="M4687 5899 c7 -7 15 -10 18 -7 3 3 -2 9 -12 12 -14 6 -15 5 -6 -5z"/>
<path d="M2225 5839 c-3 -4 2 -6 10 -5 21 3 28 13 10 13 -9 0 -18 -4 -20 -8z"/>
<path d="M4756 5833 c-6 -14 -5 -15 5 -6 7 7 10 15 7 18 -3 3 -9 -2 -12 -12z"/>
<path d="M2140 5806 c0 -2 8 -10 18 -17 15 -13 16 -12 3 4 -13 16 -21 21 -21
13z"/>
<path d="M2014 5616 c1 -8 5 -18 8 -22 4 -3 5 1 4 10 -1 8 -5 18 -8 22 -4 3
-5 -1 -4 -10z"/>
<path d="M1956 5522 c-3 -5 1 -9 9 -9 8 0 12 4 9 9 -3 4 -7 8 -9 8 -2 0 -6 -4
-9 -8z"/>
<path d="M1955 5440 c3 -5 8 -10 11 -10 2 0 4 5 4 10 0 6 -5 10 -11 10 -5 0
-7 -4 -4 -10z"/>
<path d="M2006 5318 c3 -5 10 -6 15 -3 13 9 11 12 -6 12 -8 0 -12 -4 -9 -9z"/>
<path d="M1955 5280 c3 -5 8 -10 11 -10 2 0 4 5 4 10 0 6 -5 10 -11 10 -5 0
-7 -4 -4 -10z"/>
<path d="M4975 5280 c3 -5 8 -10 11 -10 2 0 4 5 4 10 0 6 -5 10 -11 10 -5 0
-7 -4 -4 -10z"/>
<path d="M4955 5220 c-3 -5 -1 -10 4 -10 6 0 11 5 11 10 0 6 -2 10 -4 10 -3 0
-8 -4 -11 -10z"/>
<path d="M4950 5180 c0 -5 5 -10 11 -10 5 0 7 5 4 10 -3 6 -8 10 -11 10 -2 0
-4 -4 -4 -10z"/>
<path d="M2006 5158 c3 -5 10 -6 15 -3 13 9 11 12 -6 12 -8 0 -12 -4 -9 -9z"/>
<path d="M1955 5120 c3 -5 8 -10 11 -10 2 0 4 5 4 10 0 6 -5 10 -11 10 -5 0
-7 -4 -4 -10z"/>
<path d="M4975 4960 c3 -5 8 -10 11 -10 2 0 4 5 4 10 0 6 -5 10 -11 10 -5 0
-7 -4 -4 -10z"/>
<path d="M4955 4900 c-3 -5 -1 -10 4 -10 6 0 11 5 11 10 0 6 -2 10 -4 10 -3 0
-8 -4 -11 -10z"/>
<path d="M4950 4860 c0 -5 5 -10 11 -10 5 0 7 5 4 10 -3 6 -8 10 -11 10 -2 0
-4 -4 -4 -10z"/>
<path d="M4975 4640 c3 -5 8 -10 11 -10 2 0 4 5 4 10 0 6 -5 10 -11 10 -5 0
-7 -4 -4 -10z"/>
<path d="M1986 4602 c-3 -5 1 -9 9 -9 8 0 12 4 9 9 -3 4 -7 8 -9 8 -2 0 -6 -4
-9 -8z"/>
<path d="M4955 4580 c-3 -5 -1 -10 4 -10 6 0 11 5 11 10 0 6 -2 10 -4 10 -3 0
-8 -4 -11 -10z"/>
<path d="M1990 4566 c0 -2 7 -7 16 -10 8 -3 12 -2 9 4 -6 10 -25 14 -25 6z"/>
<path d="M4950 4540 c0 -5 5 -10 11 -10 5 0 7 5 4 10 -3 6 -8 10 -11 10 -2 0
-4 -4 -4 -10z"/>
<path d="M1956 4487 c3 -10 9 -15 12 -12 3 3 0 11 -7 18 -10 9 -11 8 -5 -6z"/>
<path d="M4975 4320 c3 -5 8 -10 11 -10 2 0 4 5 4 10 0 6 -5 10 -11 10 -5 0
-7 -4 -4 -10z"/>
<path d="M4976 4158 c3 -5 10 -6 15 -3 13 9 11 12 -6 12 -8 0 -12 -4 -9 -9z"/>
<path d="M4986 4042 c-3 -5 1 -9 9 -9 8 0 15 4 15 9 0 4 -4 8 -9 8 -6 0 -12
-4 -15 -8z"/>
<path d="M2086 3942 c-3 -5 1 -9 9 -9 8 0 12 4 9 9 -3 4 -7 8 -9 8 -2 0 -6 -4
-9 -8z"/>
<path d="M4816 3918 c3 -5 10 -6 15 -3 13 9 11 12 -6 12 -8 0 -12 -4 -9 -9z"/>
<path d="M4755 3911 c-3 -5 -2 -12 3 -15 5 -3 9 1 9 9 0 17 -3 19 -12 6z"/>
<path d="M4955 3880 c3 -5 8 -10 11 -10 2 0 4 5 4 10 0 6 -5 10 -11 10 -5 0
-7 -4 -4 -10z"/>
<path d="M2210 3859 c0 -5 5 -7 10 -4 6 3 10 8 10 11 0 2 -4 4 -10 4 -5 0 -10
-5 -10 -11z"/>
<path d="M4756 3842 c-3 -5 1 -9 9 -9 8 0 12 4 9 9 -3 4 -7 8 -9 8 -2 0 -6 -4
-9 -8z"/>
<path d="M1792 3805 c12 -13 -12 -47 -28 -41 -8 3 -13 2 -10 -2 2 -4 -12 -18
-31 -31 -19 -12 -32 -17 -27 -10 4 7 -11 -2 -33 -20 -23 -18 -46 -30 -52 -27
-5 4 -13 0 -18 -7 -4 -8 -39 -31 -78 -52 -38 -21 -81 -47 -95 -57 -23 -18 -25
-19 -31 -1 -7 16 -8 16 -8 -2 -1 -23 -36 -49 -53 -39 -7 4 -8 3 -4 -4 4 -7 1
-12 -8 -12 -9 0 -16 -5 -16 -11 0 -5 -4 -8 -9 -5 -5 4 -11 1 -13 -5 -2 -6 -15
-12 -30 -12 -17 -2 -24 -6 -20 -16 4 -10 1 -13 -12 -8 -9 4 -15 3 -12 -1 3 -5
-12 -17 -32 -26 -20 -10 -56 -31 -80 -47 -24 -16 -47 -27 -52 -24 -4 3 -11 -2
-14 -11 -5 -14 -9 -14 -23 -3 -9 8 -14 9 -10 3 4 -6 -3 -20 -15 -30 -14 -12
-19 -14 -13 -4 4 8 -2 5 -14 -7 -23 -24 -36 -28 -44 -15 -2 4 -2 1 -1 -6 2 -7
-4 -16 -14 -19 -9 -4 -48 -26 -87 -49 -183 -110 -209 -123 -221 -113 -8 7 -11
5 -10 -7 1 -18 -100 -77 -117 -67 -6 3 -7 1 -3 -5 7 -12 -27 -35 -38 -25 -3 3
-6 1 -6 -6 0 -7 -3 -10 -8 -7 -4 2 -7 -22 -6 -55 1 -41 -2 -57 -10 -52 -6 3
-6 0 1 -8 17 -17 17 -63 1 -53 -7 5 -8 3 -2 -7 5 -8 10 -25 12 -37 2 -17 -1
-22 -10 -16 -10 6 -10 4 1 -9 11 -14 11 -17 0 -17 -9 0 -10 -3 -3 -8 14 -10
14 -213 0 -205 -6 4 -5 -1 3 -10 11 -14 11 -17 0 -17 -9 0 -10 -3 -4 -8 15
-10 15 -213 1 -205 -6 4 -5 -1 3 -10 11 -14 11 -17 0 -17 -10 0 -10 -3 -3 -8
16 -10 17 -95 1 -85 -9 5 -9 3 0 -8 16 -20 17 -31 1 -40 -9 -6 -9 -9 -1 -9 8
0 12 -18 12 -55 -1 -36 -5 -53 -12 -48 -6 4 -7 1 -1 -8 13 -21 14 -39 1 -39
-9 0 -9 -2 -1 -8 15 -10 14 -233 0 -224 -6 3 -5 -2 3 -11 11 -14 11 -17 0 -17
-10 0 -10 -3 -3 -8 13 -8 13 -130 0 -151 -6 -9 -5 -12 1 -8 7 5 10 -17 10 -63
0 -38 -4 -67 -8 -64 -4 2 -11 0 -14 -6 -4 -6 -1 -9 6 -8 7 2 14 -9 15 -25 2
-19 -1 -25 -9 -20 -7 4 -7 1 1 -10 8 -9 11 -20 8 -26 -3 -5 3 -7 14 -4 11 3
20 0 20 -6 0 -6 6 -11 13 -11 7 0 23 -9 35 -20 12 -11 27 -20 35 -20 7 0 23
-9 35 -20 12 -12 22 -17 22 -13 0 4 7 0 14 -10 8 -10 17 -18 20 -18 24 3 27 0
15 -16 -13 -16 -12 -17 2 -5 14 11 24 8 65 -18 27 -16 61 -35 77 -41 25 -10
32 -21 28 -43 -1 -5 4 -4 11 2 11 8 21 7 41 -7 15 -10 24 -21 20 -26 -5 -4 -3
-5 4 -1 16 9 114 -46 109 -60 -3 -7 3 -10 12 -8 19 5 85 -32 78 -44 -2 -4 8
-8 22 -9 14 0 31 -9 38 -18 7 -9 15 -16 18 -16 20 3 26 0 21 -9 -3 -6 1 -7 9
-4 9 3 16 1 16 -5 0 -6 7 -11 16 -11 11 0 14 -6 9 -22 -7 -21 -6 -22 7 -5 12
16 15 16 33 3 17 -14 18 -17 5 -26 -9 -6 -10 -10 -3 -10 6 0 15 5 18 10 4 6
11 8 16 4 5 -3 7 -10 4 -15 -4 -5 2 -6 11 -2 14 5 16 3 11 -12 -6 -13 -4 -15
5 -8 15 12 93 -29 81 -42 -5 -4 -2 -5 6 0 7 4 16 3 20 -2 3 -5 23 -17 45 -27
30 -14 35 -20 25 -28 -10 -7 -8 -7 9 -3 13 4 22 2 22 -5 0 -6 5 -8 10 -5 5 3
10 1 10 -4 0 -6 8 -11 19 -11 10 0 30 -11 45 -25 14 -13 26 -22 26 -19 0 2 13
-2 30 -11 16 -9 30 -21 30 -27 0 -6 3 -8 7 -5 7 7 94 -39 105 -57 4 -5 4 -14
1 -20 -3 -5 -1 -6 6 -2 6 4 9 11 6 16 -3 4 4 6 15 3 11 -3 27 0 35 7 12 10 19
10 27 2 7 -7 17 -12 22 -12 6 0 3 5 -7 11 -21 12 -13 29 14 29 10 0 19 5 19
10 0 6 10 15 23 20 12 6 36 19 52 29 17 10 33 16 38 14 4 -2 7 1 7 6 0 6 7 11
15 11 8 0 15 5 15 11 0 5 5 7 10 4 6 -3 10 -1 10 4 0 6 7 11 15 11 8 0 15 5
15 11 0 5 5 7 10 4 6 -3 10 -1 10 5 0 6 5 8 10 5 6 -3 10 -1 10 5 0 7 7 9 16
6 8 -3 13 -2 10 3 -3 5 8 14 24 21 17 7 30 17 30 22 0 5 4 7 9 4 5 -4 11 -1
13 5 2 6 15 12 30 12 14 1 26 6 25 11 -3 13 63 47 75 40 6 -4 8 -2 5 3 -6 10
4 18 26 22 4 0 16 10 27 21 21 21 46 19 34 -2 -4 -7 -2 -8 4 -4 6 4 9 13 5 21
-4 11 -1 13 11 9 11 -4 16 -2 14 7 -2 7 2 13 7 14 6 0 36 18 68 38 31 21 65
41 75 44 9 4 34 18 54 31 30 19 41 22 52 13 10 -8 16 -9 21 -1 4 6 3 9 -2 8
-4 -2 -8 2 -8 7 0 6 3 9 8 7 4 -1 7 3 7 9 0 6 7 8 16 5 10 -4 13 -2 8 6 -5 8
-2 9 10 5 9 -4 15 -3 11 2 -7 12 54 43 68 34 6 -3 7 -1 3 6 -4 6 0 14 11 18
10 3 37 19 60 35 46 31 59 34 67 16 3 -7 4 -4 3 7 -1 14 4 20 15 19 10 -1 16
1 13 5 -6 11 113 73 125 66 6 -3 7 1 4 9 -3 9 -1 17 5 17 26 3 30 4 36 10 3 4
6 188 6 410 1 293 4 408 12 418 9 12 9 13 -1 7 -17 -10 -16 292 1 313 9 12 9
13 0 7 -10 -5 -13 52 -13 260 0 190 -3 271 -11 278 -9 8 -10 7 -4 -3 5 -9 -4
-6 -22 7 -17 12 -35 22 -40 22 -5 0 -18 8 -29 18 -10 10 -34 24 -51 31 -18 7
-33 17 -33 22 0 5 -6 9 -13 9 -8 0 -19 10 -26 23 -6 12 -9 14 -7 5 7 -24 1
-23 -25 5 -12 12 -18 15 -14 7 7 -12 5 -12 -11 1 -10 9 -28 19 -39 23 -16 6
-17 9 -5 17 12 9 12 10 -3 5 -11 -4 -49 12 -100 40 -100 57 -93 50 -76 71 12
16 12 17 -1 7 -8 -6 -23 -10 -32 -9 -23 4 -88 44 -88 55 0 4 -8 7 -17 6 -11 0
-17 5 -15 13 2 8 -3 11 -12 8 -9 -4 -22 0 -30 8 -8 8 -19 15 -25 15 -6 0 -11
4 -11 8 0 5 -6 9 -12 9 -24 1 -158 85 -152 95 4 6 1 8 -7 6 -15 -6 -69 21 -69
35 0 4 -4 6 -9 2 -5 -3 -16 2 -24 10 -9 8 -21 15 -27 15 -7 0 -9 7 -6 16 5 13
3 14 -7 6 -15 -13 -43 1 -33 16 3 5 -1 12 -9 15 -10 4 -12 1 -9 -11 5 -14 3
-13 -10 2 -9 11 -16 17 -16 13 0 -4 -9 -3 -20 3 -11 6 -18 15 -15 20 3 6 -1 7
-9 4 -9 -3 -16 -1 -16 5 0 6 -4 10 -8 9 -12 -4 -82 35 -82 45 0 4 -4 5 -10 2
-5 -3 -10 -2 -10 3 0 4 -16 14 -35 22 -19 7 -32 17 -29 22 3 4 -4 8 -15 8 -12
0 -21 5 -21 10 0 6 -3 9 -7 9 -19 -3 -34 2 -29 9 3 5 -1 9 -9 9 -8 0 -16 -6
-19 -14 -3 -7 -10 -13 -16 -13 -6 0 -9 4 -5 9 3 5 0 13 -7 17 -7 4 -10 4 -6
-1z"/>
<path d="M2376 3798 c3 -5 10 -6 15 -3 13 9 11 12 -6 12 -8 0 -12 -4 -9 -9z"/>
<path d="M5140 3800 c0 -12 -56 -41 -64 -33 -3 4 -6 1 -6 -5 0 -21 -39 -35
-58 -20 -15 12 -16 11 -3 -5 12 -15 10 -18 -18 -28 -17 -6 -31 -16 -31 -21 0
-6 -8 -4 -17 3 -9 8 -14 9 -10 2 8 -12 -25 -38 -82 -66 -40 -20 -44 -21 -35
-5 4 7 3 8 -5 4 -6 -4 -9 -11 -6 -16 8 -12 -53 -43 -67 -34 -7 5 -8 3 -4 -5 5
-8 0 -14 -13 -18 -12 -3 -21 -9 -21 -14 0 -5 -6 -9 -12 -9 -7 0 -41 -18 -76
-40 -35 -22 -68 -37 -74 -34 -6 4 -8 2 -5 -3 4 -6 0 -14 -9 -17 -21 -8 -26 -8
-20 2 3 5 -1 9 -9 9 -11 0 -12 -4 -4 -13 7 -9 -7 -21 -55 -48 -68 -38 -81 -43
-70 -24 4 7 3 8 -5 4 -6 -4 -9 -12 -6 -17 4 -5 -5 -13 -18 -18 -14 -6 -28 -15
-32 -20 -3 -6 -11 -11 -17 -11 -6 0 -7 5 -2 13 5 7 1 4 -9 -6 -36 -40 -233
-150 -250 -141 -6 4 -9 4 -5 -1 4 -4 0 -14 -9 -23 -11 -12 -19 -13 -32 -5 -9
6 -15 17 -13 25 2 7 0 9 -4 5 -11 -11 -14 -38 -4 -32 5 3 11 1 15 -4 7 -13
-52 -44 -67 -35 -7 4 -8 3 -4 -5 4 -6 0 -14 -11 -19 -10 -4 -55 -29 -101 -57
l-82 -50 0 -45 c-1 -25 -1 -341 0 -703 0 -528 -2 -657 -12 -651 -10 6 -10 5
-2 -7 15 -18 15 -70 0 -88 -8 -12 -8 -13 2 -7 16 10 16 -16 0 -33 -10 -11 -10
-13 0 -7 9 5 12 -9 12 -58 0 -56 3 -67 21 -77 16 -8 18 -13 9 -19 -8 -5 -9
-10 -2 -14 6 -3 13 0 15 6 4 10 7 10 15 0 5 -8 13 -13 18 -13 5 1 9 -3 9 -8 0
-5 4 -13 9 -18 5 -5 6 -3 2 5 -10 17 -5 16 50 -15 53 -29 66 -42 57 -57 -3 -5
-1 -6 6 -2 6 4 8 13 4 19 -4 7 4 4 17 -5 14 -10 51 -32 82 -50 32 -18 58 -40
58 -48 0 -13 1 -13 10 0 9 14 14 7 11 -13 -1 -5 3 -6 9 -2 13 8 49 -12 46 -27
-1 -7 -6 -20 -11 -28 -8 -13 -7 -13 8 -1 9 7 14 17 11 22 -10 17 22 9 44 -11
12 -11 24 -20 27 -20 22 1 26 -2 20 -19 -3 -11 -1 -22 4 -26 7 -3 8 0 5 9 -3
9 -2 16 2 16 19 0 94 -46 94 -57 0 -6 4 -15 10 -18 6 -3 7 1 4 9 -3 9 45 -14
107 -51 63 -36 124 -71 137 -77 12 -6 20 -16 18 -22 -3 -7 3 -10 15 -7 10 3
19 0 19 -6 0 -6 6 -11 13 -11 23 0 97 -45 93 -57 -3 -7 1 -10 9 -7 13 6 133
-59 146 -79 3 -5 10 -9 15 -10 5 -1 8 -5 7 -8 -1 -4 6 -5 16 -2 9 2 24 -4 32
-13 12 -15 12 -16 0 -9 -9 5 -12 4 -7 -3 4 -6 13 -9 20 -6 7 3 20 -1 27 -8 8
-7 20 -14 27 -16 7 -1 30 -13 51 -26 38 -24 38 -24 66 -6 16 10 32 17 37 14 4
-3 8 0 8 6 0 6 15 17 34 25 19 8 38 19 41 25 4 6 11 8 16 5 5 -4 9 -3 9 2 0 4
26 22 57 38 32 17 64 36 71 43 15 14 28 16 35 5 2 -5 2 -3 1 4 -2 7 11 19 28
28 38 18 41 19 32 2 -4 -7 -3 -9 2 -4 5 5 9 14 9 20 0 7 10 12 23 11 12 0 20
2 17 4 -10 10 17 31 32 25 11 -4 14 -2 9 5 -4 7 -2 12 3 12 6 0 14 0 19 0 4 0
7 -4 7 -9 0 -5 3 -13 7 -16 4 -4 5 3 3 17 -4 20 4 29 49 56 30 18 58 32 62 32
4 0 15 6 23 14 9 7 36 24 61 37 25 13 60 34 79 47 19 12 41 20 48 17 8 -2 11
-1 8 5 -3 5 3 14 14 19 31 17 36 13 15 -11 -12 -14 -13 -18 -3 -10 9 6 19 9
22 6 4 -4 4 3 2 16 -3 17 2 24 25 33 17 6 30 16 30 21 0 5 7 1 15 -10 10 -13
13 -14 10 -3 -3 9 1 22 10 29 8 7 15 9 15 4 0 -5 4 -4 8 1 8 11 126 85 136 85
4 0 12 5 19 10 19 17 127 79 127 74 0 -3 15 6 33 20 19 14 37 23 40 19 4 -3 7
-1 7 6 0 7 5 9 10 6 6 -3 10 -2 10 3 0 5 11 14 24 20 19 8 23 16 19 33 -4 15
-2 20 5 15 6 -3 14 -2 17 4 4 6 1 9 -6 8 -17 -4 -22 52 -6 71 9 11 9 13 0 8
-9 -6 -11 20 -10 100 2 84 5 107 15 105 8 -1 11 2 7 8 -3 6 -11 8 -16 5 -5 -4
-9 13 -9 37 0 31 3 39 10 28 5 -8 10 -10 10 -4 0 5 -5 15 -11 21 -15 15 -7 69
9 65 8 -1 11 2 7 8 -3 6 -11 8 -16 4 -6 -4 -9 16 -7 53 2 42 7 57 16 55 8 -1
11 2 7 8 -3 6 -10 8 -15 5 -4 -3 -9 31 -9 76 -1 50 3 78 9 74 6 -3 10 -1 10 4
0 6 -3 11 -8 11 -4 0 -8 52 -10 116 -2 76 1 113 8 109 5 -3 10 -1 10 4 0 6 -4
11 -9 11 -4 0 -8 60 -7 133 1 104 4 131 14 129 8 -1 11 2 7 8 -3 6 -10 8 -15
5 -5 -3 -8 59 -7 144 1 82 5 147 9 145 3 -2 10 0 13 6 4 6 1 9 -7 8 -9 -2 -13
7 -12 30 1 17 -2 32 -8 32 -5 0 -6 5 -2 12 4 6 3 8 -4 5 -14 -9 -43 3 -36 14
3 5 2 8 -3 7 -16 -5 -73 27 -69 38 3 7 -3 10 -15 7 -10 -3 -19 0 -19 6 0 6 -3
10 -7 9 -15 -3 -43 14 -37 23 3 5 -1 6 -8 4 -8 -3 -29 6 -48 20 -19 14 -39 25
-45 25 -7 0 -20 9 -30 20 -9 10 -20 19 -24 18 -15 -3 -62 23 -67 37 -3 8 -11
12 -17 8 -5 -3 -15 1 -21 9 -10 14 -17 18 -32 18 -4 0 0 8 7 18 12 15 12 16
-2 4 -18 -13 -49 -7 -49 11 0 6 -3 7 -6 4 -13 -12 -43 13 -38 31 4 12 3 13 -3
5 -7 -10 -15 -10 -36 0 -15 6 -27 15 -27 20 0 4 -7 7 -15 7 -8 0 -15 5 -15 11
0 5 -4 7 -10 4 -5 -3 -10 2 -10 12 0 15 -2 16 -10 3 -6 -10 -10 -11 -10 -2 0
6 -4 12 -10 12 -5 0 -33 14 -62 31 -29 18 -78 45 -108 62 -30 16 -60 34 -66
38 -6 5 -35 22 -65 38 -30 16 -53 35 -51 41 1 6 -1 9 -6 6 -14 -8 -93 35 -85
47 3 6 1 7 -5 3 -19 -11 -54 13 -47 32 5 13 4 14 -6 5 -10 -10 -20 -8 -48 9
-20 12 -38 26 -39 30 -2 5 -8 6 -13 2 -5 -3 -9 0 -9 5 0 6 -9 11 -19 11 -11 0
-22 4 -25 9 -9 15 -86 51 -86 41z"/>
<path d="M2000 3780 c-9 -6 -10 -10 -3 -10 6 0 15 5 18 10 8 12 4 12 -15 0z"/>
<path d="M2310 3780 c0 -5 5 -10 11 -10 5 0 7 5 4 10 -3 6 -8 10 -11 10 -2 0
-4 -4 -4 -10z"/>
<path d="M1966 3762 c-3 -5 1 -9 9 -9 8 0 12 4 9 9 -3 4 -7 8 -9 8 -2 0 -6 -4
-9 -8z"/>
<path d="M4516 3753 c-6 -14 -5 -15 5 -6 7 7 10 15 7 18 -3 3 -9 -2 -12 -12z"/>
<path d="M2115 3751 c-3 -5 -2 -12 3 -15 5 -3 9 1 9 9 0 17 -3 19 -12 6z"/>
<path d="M1653 3743 c4 -3 1 -13 -6 -22 -11 -14 -10 -14 5 -2 16 12 16 31 1
31 -4 0 -3 -3 0 -7z"/>
<path d="M2050 3739 c0 -5 5 -7 10 -4 6 3 10 8 10 11 0 2 -4 4 -10 4 -5 0 -10
-5 -10 -11z"/>
<path d="M4910 3739 c0 -5 5 -7 10 -4 6 3 10 8 10 11 0 2 -4 4 -10 4 -5 0 -10
-5 -10 -11z"/>
<path d="M4456 3727 c3 -10 9 -15 12 -12 3 3 0 11 -7 18 -10 9 -11 8 -5 -6z"/>
<path d="M1610 3721 c0 -6 4 -12 8 -15 5 -3 9 1 9 9 0 8 -4 15 -9 15 -4 0 -8
-4 -8 -9z"/>
<path d="M4429 3717 c6 -8 7 -18 3 -22 -4 -5 -1 -5 6 -1 10 6 10 11 1 22 -6 8
-14 14 -16 14 -3 0 0 -6 6 -13z"/>
<path d="M4945 3720 c-3 -6 1 -7 9 -4 18 7 21 14 7 14 -6 0 -13 -4 -16 -10z"/>
<path d="M1570 3700 c0 -5 5 -10 11 -10 5 0 7 5 4 10 -3 6 -8 10 -11 10 -2 0
-4 -4 -4 -10z"/>
<path d="M2135 3700 c-3 -5 -1 -10 4 -10 6 0 11 5 11 10 0 6 -2 10 -4 10 -3 0
-8 -4 -11 -10z"/>
<path d="M4835 3689 c-4 -6 -5 -12 -2 -15 2 -3 7 2 10 11 7 17 1 20 -8 4z"/>
<path d="M5455 3689 c-4 -6 -5 -12 -2 -15 2 -3 7 2 10 11 7 17 1 20 -8 4z"/>
<path d="M1427 3679 c7 -7 15 -10 18 -7 3 3 -2 9 -12 12 -14 6 -15 5 -6 -5z"/>
<path d="M1553 3665 c0 -8 4 -12 9 -9 5 3 6 10 3 15 -9 13 -12 11 -12 -6z"/>
<path d="M4795 3670 c-4 -6 -11 -7 -17 -4 -7 4 -8 2 -4 -5 6 -9 11 -9 22 0 14
11 18 19 10 19 -3 0 -8 -5 -11 -10z"/>
<path d="M4871 3667 c-8 -10 -7 -14 2 -14 8 0 14 6 14 14 0 7 -1 13 -2 13 -2
0 -8 -6 -14 -13z"/>
<path d="M1493 3655 c0 -8 4 -12 9 -9 5 3 6 10 3 15 -9 13 -12 11 -12 -6z"/>
<path d="M2246 3662 c-3 -5 1 -9 9 -9 8 0 12 4 9 9 -3 4 -7 8 -9 8 -2 0 -6 -4
-9 -8z"/>
<path d="M4273 3635 c0 -8 4 -12 9 -9 5 3 6 10 3 15 -9 13 -12 11 -12 -6z"/>
<path d="M1410 3619 c0 -5 5 -7 10 -4 6 3 10 8 10 11 0 2 -4 4 -10 4 -5 0 -10
-5 -10 -11z"/>
<path d="M2713 3613 c0 -9 4 -10 14 -2 7 6 13 12 13 14 0 1 -6 2 -13 2 -8 0
-14 -6 -14 -14z"/>
<path d="M4674 3622 c4 -3 14 -7 22 -8 9 -1 13 0 10 4 -4 3 -14 7 -22 8 -9 1
-13 0 -10 -4z"/>
<path d="M5553 3623 c4 -3 1 -13 -6 -22 -11 -14 -10 -14 5 -2 16 12 16 31 1
31 -4 0 -3 -3 0 -7z"/>
<path d="M4310 3601 c0 -6 4 -12 8 -15 5 -3 9 1 9 9 0 8 -4 15 -9 15 -4 0 -8
-4 -8 -9z"/>
<path d="M4360 3600 c-9 -6 -10 -10 -3 -10 6 0 15 5 18 10 8 12 4 12 -15 0z"/>
<path d="M4195 3591 c-3 -5 -2 -12 3 -15 5 -3 9 1 9 9 0 17 -3 19 -12 6z"/>
<path d="M4593 3585 c0 -8 4 -12 9 -9 5 3 6 10 3 15 -9 13 -12 11 -12 -6z"/>
<path d="M1315 3579 c-3 -4 2 -6 10 -5 21 3 28 13 10 13 -9 0 -18 -4 -20 -8z"/>
<path d="M2646 3582 c-3 -5 1 -9 9 -9 8 0 12 4 9 9 -3 4 -7 8 -9 8 -2 0 -6 -4
-9 -8z"/>
<path d="M2790 3561 c0 -6 4 -12 8 -15 5 -3 9 1 9 9 0 8 -4 15 -9 15 -4 0 -8
-4 -8 -9z"/>
<path d="M5610 3560 c-9 -6 -10 -10 -3 -10 6 0 15 5 18 10 8 12 4 12 -15 0z"/>
<path d="M4550 3541 c0 -6 4 -13 10 -16 6 -3 7 1 4 9 -7 18 -14 21 -14 7z"/>
<path d="M4630 3546 c0 -2 7 -7 16 -10 8 -3 12 -2 9 4 -6 10 -25 14 -25 6z"/>
<path d="M5673 3535 c0 -8 4 -12 9 -9 5 3 6 10 3 15 -9 13 -12 11 -12 -6z"/>
<path d="M4493 3505 c0 -8 4 -12 9 -9 5 3 6 10 3 15 -9 13 -12 11 -12 -6z"/>
<path d="M2490 3499 c0 -5 5 -7 10 -4 6 3 10 8 10 11 0 2 -4 4 -10 4 -5 0 -10
-5 -10 -11z"/>
<path d="M4034 3488 l-19 -23 23 19 c12 11 22 21 22 23 0 8 -8 2 -26 -19z"/>
<path d="M3997 3475 c-4 -8 -3 -16 1 -19 4 -3 9 4 9 15 2 23 -3 25 -10 4z"/>
<path d="M1135 3461 c-3 -5 -2 -12 3 -15 5 -3 9 1 9 9 0 17 -3 19 -12 6z"/>
<path d="M2886 3462 c-3 -5 1 -9 9 -9 8 0 12 4 9 9 -3 4 -7 8 -9 8 -2 0 -6 -4
-9 -8z"/>
<path d="M2950 3466 c0 -2 7 -7 16 -10 8 -3 12 -2 9 4 -6 10 -25 14 -25 6z"/>
<path d="M5855 3460 c-3 -5 -1 -10 4 -10 6 0 11 5 11 10 0 6 -2 10 -4 10 -3 0
-8 -4 -11 -10z"/>
<path d="M4030 3456 c0 -2 8 -10 18 -17 15 -13 16 -12 3 4 -13 16 -21 21 -21
13z"/>
<path d="M1079 3433 c-13 -16 -12 -17 4 -4 9 7 17 15 17 17 0 8 -8 3 -21 -13z"/>
<path d="M2536 3433 c-6 -14 -5 -15 5 -6 7 7 10 15 7 18 -3 3 -9 -2 -12 -12z"/>
<path d="M2670 3441 c0 -6 4 -13 10 -16 6 -3 7 1 4 9 -7 18 -14 21 -14 7z"/>
<path d="M4390 3446 c0 -2 7 -7 16 -10 8 -3 12 -2 9 4 -6 10 -25 14 -25 6z"/>
<path d="M1119 3413 c-13 -17 -13 -17 6 -3 11 8 22 16 24 17 2 2 0 3 -6 3 -6
0 -17 -8 -24 -17z"/>
<path d="M5860 3420 c8 -5 20 -10 25 -10 6 0 3 5 -5 10 -8 5 -19 10 -25 10 -5
0 -3 -5 5 -10z"/>
<path d="M3020 3406 c0 -2 8 -10 18 -17 15 -13 16 -12 3 4 -13 16 -21 21 -21
13z"/>
<path d="M3905 3400 c-3 -6 1 -7 9 -4 18 7 21 14 7 14 -6 0 -13 -4 -16 -10z"/>
<path d="M4335 3400 c3 -5 8 -10 11 -10 2 0 4 5 4 10 0 6 -5 10 -11 10 -5 0
-7 -4 -4 -10z"/>
<path d="M3105 3380 c-3 -6 1 -7 9 -4 18 7 21 14 7 14 -6 0 -13 -4 -16 -10z"/>
<path d="M3926 3378 c3 -5 10 -6 15 -3 13 9 11 12 -6 12 -8 0 -12 -4 -9 -9z"/>
<path d="M4293 3375 c0 -8 4 -12 9 -9 5 3 6 10 3 15 -9 13 -12 11 -12 -6z"/>
<path d="M2674 3356 c1 -8 5 -18 8 -22 4 -3 5 1 4 10 -1 8 -5 18 -8 22 -4 3
-5 -1 -4 -10z"/>
<path d="M2707 3359 c7 -7 15 -10 18 -7 3 3 -2 9 -12 12 -14 6 -15 5 -6 -5z"/>
<path d="M5976 3353 c-6 -14 -5 -15 5 -6 7 7 10 15 7 18 -3 3 -9 -2 -12 -12z"/>
<path d="M3075 3349 c-4 -6 -5 -12 -2 -15 2 -3 7 2 10 11 7 17 1 20 -8 4z"/>
<path d="M4215 3341 c-3 -5 -2 -12 3 -15 5 -3 9 1 9 9 0 17 -3 19 -12 6z"/>
<path d="M836 3327 c3 -10 9 -15 12 -12 3 3 0 11 -7 18 -10 9 -11 8 -5 -6z"/>
<path d="M2710 3321 c0 -6 4 -12 8 -15 5 -3 9 1 9 9 0 8 -4 15 -9 15 -4 0 -8
-4 -8 -9z"/>
<path d="M2853 3311 c0 -11 5 -18 9 -15 4 3 5 11 1 19 -7 21 -12 19 -10 -4z"/>
<path d="M6050 3321 c0 -6 4 -13 10 -16 6 -3 7 1 4 9 -7 18 -14 21 -14 7z"/>
<path d="M3175 3300 c3 -5 8 -10 11 -10 2 0 4 5 4 10 0 6 -5 10 -11 10 -5 0
-7 -4 -4 -10z"/>
<path d="M3215 3300 c3 -5 8 -10 11 -10 2 0 4 5 4 10 0 6 -5 10 -11 10 -5 0
-7 -4 -4 -10z"/>
<path d="M830 3280 c0 -5 5 -10 11 -10 5 0 7 5 4 10 -3 6 -8 10 -11 10 -2 0
-4 -4 -4 -10z"/>
<path d="M3265 3280 c-3 -6 1 -7 9 -4 18 7 21 14 7 14 -6 0 -13 -4 -16 -10z"/>
<path d="M2815 3271 c-3 -5 -2 -12 3 -15 5 -3 9 1 9 9 0 17 -3 19 -12 6z"/>
<path d="M4155 3271 c-3 -5 -2 -12 3 -15 5 -3 9 1 9 9 0 17 -3 19 -12 6z"/>
<path d="M710 3256 c0 -2 8 -10 18 -17 15 -13 16 -12 3 4 -13 16 -21 21 -21
13z"/>
<path d="M830 3239 c0 -5 5 -7 10 -4 6 3 10 8 10 11 0 2 -4 4 -10 4 -5 0 -10
-5 -10 -11z"/>
<path d="M3590 3239 c0 -5 5 -7 10 -4 6 3 10 8 10 11 0 2 -4 4 -10 4 -5 0 -10
-5 -10 -11z"/>
<path d="M6227 3239 c7 -7 15 -10 18 -7 3 3 -2 9 -12 12 -14 6 -15 5 -6 -5z"/>
<path d="M3037 3233 c-10 -9 -9 -23 1 -23 5 0 9 7 9 15 0 17 -1 18 -10 8z"/>
<path d="M3330 3226 c0 -2 7 -7 16 -10 8 -3 12 -2 9 4 -6 10 -25 14 -25 6z"/>
<path d="M4015 3221 c-3 -5 -2 -12 3 -15 5 -3 9 1 9 9 0 17 -3 19 -12 6z"/>
<path d="M6275 3221 c-3 -5 -2 -12 3 -15 5 -3 9 1 9 9 0 17 -3 19 -12 6z"/>
<path d="M586 3202 c-3 -5 1 -9 9 -9 8 0 12 4 9 9 -3 4 -7 8 -9 8 -2 0 -6 -4
-9 -8z"/>
<path d="M730 3201 c0 -6 4 -13 10 -16 6 -3 7 1 4 9 -7 18 -14 21 -14 7z"/>
<path d="M6234 3202 c4 -3 14 -7 22 -8 9 -1 13 0 10 4 -4 3 -14 7 -22 8 -9 1
-13 0 -10 -4z"/>
<path d="M660 3180 c-9 -6 -10 -10 -3 -10 6 0 15 5 18 10 8 12 4 12 -15 0z"/>
<path d="M6340 3180 c-12 -7 -10 -9 7 -7 12 0 19 5 17 9 -6 10 -6 10 -24 -2z"/>
<path d="M3920 3160 c-9 -6 -10 -10 -3 -10 6 0 15 5 18 10 8 12 4 12 -15 0z"/>
<path d="M590 3140 c0 -5 5 -10 11 -10 5 0 7 5 4 10 -3 6 -8 10 -11 10 -2 0
-4 -4 -4 -10z"/>
<path d="M650 3139 c0 -5 5 -7 10 -4 6 3 10 8 10 11 0 2 -4 4 -10 4 -5 0 -10
-5 -10 -11z"/>
<path d="M3156 3113 c-6 -14 -5 -15 5 -6 7 7 10 15 7 18 -3 3 -9 -2 -12 -12z"/>
<path d="M3906 3122 c-2 -4 4 -8 14 -8 10 0 16 4 14 8 -3 4 -9 8 -14 8 -5 0
-11 -4 -14 -8z"/>
<path d="M6476 3107 c3 -10 9 -15 12 -12 3 3 0 11 -7 18 -10 9 -11 8 -5 -6z"/>
<path d="M3816 3102 c-3 -5 1 -9 9 -9 8 0 12 4 9 9 -3 4 -7 8 -9 8 -2 0 -6 -4
-9 -8z"/>
<path d="M3476 3087 c3 -10 9 -15 12 -12 3 3 0 11 -7 18 -10 9 -11 8 -5 -6z"/>
<path d="M496 3078 c3 -5 10 -6 15 -3 13 9 11 12 -6 12 -8 0 -12 -4 -9 -9z"/>
<path d="M3776 3061 c-3 -4 6 -7 19 -7 14 0 22 2 19 5 -8 8 -34 10 -38 2z"/>
<path d="M3246 3022 c-3 -5 1 -9 9 -9 8 0 12 4 9 9 -3 4 -7 8 -9 8 -2 0 -6 -4
-9 -8z"/>
<path d="M355 2970 c10 -11 20 -20 23 -20 3 0 -3 9 -13 20 -10 11 -20 20 -23
20 -3 0 3 -9 13 -20z"/>
<path d="M3315 2901 c-3 -5 -2 -12 3 -15 5 -3 9 1 9 9 0 17 -3 19 -12 6z"/>
<path d="M3305 2820 c-3 -6 1 -7 9 -4 18 7 21 14 7 14 -6 0 -13 -4 -16 -10z"/>
<path d="M340 2800 c-9 -6 -10 -10 -3 -10 6 0 15 5 18 10 8 12 4 12 -15 0z"/>
<path d="M3657 2795 c-4 -8 -3 -16 1 -19 4 -3 9 4 9 15 2 23 -3 25 -10 4z"/>
<path d="M3307 2779 c7 -7 15 -10 18 -7 3 3 -2 9 -12 12 -14 6 -15 5 -6 -5z"/>
<path d="M3380 2766 c0 -2 8 -10 18 -17 15 -13 16 -12 3 4 -13 16 -21 21 -21
13z"/>
<path d="M3656 2733 c-6 -14 -5 -15 5 -6 7 7 10 15 7 18 -3 3 -9 -2 -12 -12z"/>
<path d="M335 2720 c3 -5 8 -10 11 -10 2 0 4 5 4 10 0 6 -5 10 -11 10 -5 0 -7
-4 -4 -10z"/>
<path d="M3656 2702 c-3 -4 4 -9 15 -9 23 -2 25 3 4 10 -8 4 -16 3 -19 -1z"/>
<path d="M6613 2679 c-2 -23 3 -25 10 -4 4 8 3 16 -1 19 -4 3 -9 -4 -9 -15z"/>
<path d="M6640 2686 c0 -2 8 -10 18 -17 15 -13 16 -12 3 4 -13 16 -21 21 -21
13z"/>
<path d="M333 2665 c0 -8 4 -12 9 -9 5 3 6 10 3 15 -9 13 -12 11 -12 -6z"/>
<path d="M3333 2589 c-2 -23 3 -25 10 -4 4 8 3 16 -1 19 -4 3 -9 -4 -9 -15z"/>
<path d="M326 2582 c-3 -5 1 -9 9 -9 8 0 12 4 9 9 -3 4 -7 8 -9 8 -2 0 -6 -4
-9 -8z"/>
<path d="M6613 2555 c0 -8 4 -12 9 -9 4 3 8 9 8 15 0 5 -4 9 -8 9 -5 0 -9 -7
-9 -15z"/>
<path d="M3307 2539 c7 -7 15 -10 18 -7 3 3 -2 9 -12 12 -14 6 -15 5 -6 -5z"/>
<path d="M336 2487 c3 -10 9 -15 12 -12 3 3 0 11 -7 18 -10 9 -11 8 -5 -6z"/>
<path d="M6633 2425 c0 -8 4 -12 9 -9 5 3 6 10 3 15 -9 13 -12 11 -12 -6z"/>
<path d="M356 2418 c3 -5 10 -6 15 -3 13 9 11 12 -6 12 -8 0 -12 -4 -9 -9z"/>
<path d="M3660 2366 c0 -2 8 -10 18 -17 15 -13 16 -12 3 4 -13 16 -21 21 -21
13z"/>
<path d="M326 2342 c-3 -5 1 -9 9 -9 8 0 12 4 9 9 -3 4 -7 8 -9 8 -2 0 -6 -4
-9 -8z"/>
<path d="M3656 2293 c-6 -14 -5 -15 5 -6 7 7 10 15 7 18 -3 3 -9 -2 -12 -12z"/>
<path d="M6613 2285 c-3 -9 -3 -18 -1 -21 3 -3 8 4 11 16 6 23 -1 27 -10 5z"/>
<path d="M3330 2260 c0 -5 5 -10 11 -10 5 0 7 5 4 10 -3 6 -8 10 -11 10 -2 0
-4 -4 -4 -10z"/>
<path d="M3655 2260 c3 -5 8 -10 11 -10 2 0 4 5 4 10 0 6 -5 10 -11 10 -5 0
-7 -4 -4 -10z"/>
<path d="M6646 2258 c3 -5 10 -6 15 -3 13 9 11 12 -6 12 -8 0 -12 -4 -9 -9z"/>
<path d="M336 2247 c3 -10 9 -15 12 -12 3 3 0 11 -7 18 -10 9 -11 8 -5 -6z"/>
<path d="M6633 2225 c0 -8 4 -12 9 -9 5 3 6 10 3 15 -9 13 -12 11 -12 -6z"/>
<path d="M306 2202 c-3 -5 1 -9 9 -9 8 0 12 4 9 9 -3 4 -7 8 -9 8 -2 0 -6 -4
-9 -8z"/>
<path d="M350 2140 c0 -5 5 -10 11 -10 5 0 7 5 4 10 -3 6 -8 10 -11 10 -2 0
-4 -4 -4 -10z"/>
<path d="M3630 2119 c0 -5 5 -7 10 -4 6 3 10 8 10 11 0 2 -4 4 -10 4 -5 0 -10
-5 -10 -11z"/>
<path d="M6654 2098 c-4 -7 -4 -10 1 -6 4 4 15 2 24 -5 14 -11 14 -10 2 6 -16
20 -18 21 -27 5z"/>
<path d="M350 1980 c0 -5 5 -10 11 -10 5 0 7 5 4 10 -3 6 -8 10 -11 10 -2 0
-4 -4 -4 -10z"/>
<path d="M315 1891 c-3 -5 -2 -12 3 -15 5 -3 9 1 9 9 0 17 -3 19 -12 6z"/>
<path d="M3635 1880 c-3 -5 -1 -10 4 -10 6 0 11 5 11 10 0 6 -2 10 -4 10 -3 0
-8 -4 -11 -10z"/>
<path d="M6610 1875 c0 -8 2 -15 4 -15 2 0 6 7 10 15 3 8 1 15 -4 15 -6 0 -10
-7 -10 -15z"/>
<path d="M6650 1881 c0 -6 4 -13 10 -16 6 -3 7 1 4 9 -7 18 -14 21 -14 7z"/>
<path d="M356 1858 c3 -5 10 -6 15 -3 13 9 11 12 -6 12 -8 0 -12 -4 -9 -9z"/>
<path d="M3307 1839 c7 -7 15 -10 18 -7 3 3 -2 9 -12 12 -14 6 -15 5 -6 -5z"/>
<path d="M3347 1839 c7 -7 15 -10 18 -7 3 3 -2 9 -12 12 -14 6 -15 5 -6 -5z"/>
<path d="M326 1782 c-3 -5 1 -9 9 -9 8 0 12 4 9 9 -3 4 -7 8 -9 8 -2 0 -6 -4
-9 -8z"/>
<path d="M3655 1780 c-3 -5 -1 -10 4 -10 6 0 11 5 11 10 0 6 -2 10 -4 10 -3 0
-8 -4 -11 -10z"/>
<path d="M6613 1755 c0 -8 4 -12 9 -9 4 3 8 9 8 15 0 5 -4 9 -8 9 -5 0 -9 -7
-9 -15z"/>
<path d="M3656 1742 c-3 -5 1 -9 9 -9 8 0 12 4 9 9 -3 4 -7 8 -9 8 -2 0 -6 -4
-9 -8z"/>
<path d="M336 1687 c3 -10 9 -15 12 -12 3 3 0 11 -7 18 -10 9 -11 8 -5 -6z"/>
<path d="M3334 1636 c1 -8 5 -18 8 -22 4 -3 5 1 4 10 -1 8 -5 18 -8 22 -4 3
-5 -1 -4 -10z"/>
<path d="M356 1618 c3 -5 10 -6 15 -3 13 9 11 12 -6 12 -8 0 -12 -4 -9 -9z"/>
<path d="M6613 1595 c0 -8 4 -12 9 -9 4 3 8 9 8 15 0 5 -4 9 -8 9 -5 0 -9 -7
-9 -15z"/>
<path d="M3330 1580 c0 -5 5 -10 11 -10 5 0 7 5 4 10 -3 6 -8 10 -11 10 -2 0
-4 -4 -4 -10z"/>
<path d="M335 1551 c-3 -5 -2 -12 3 -15 5 -3 9 1 9 9 0 17 -3 19 -12 6z"/>
<path d="M3345 1519 c-3 -4 2 -6 10 -5 21 3 28 13 10 13 -9 0 -18 -4 -20 -8z"/>
<path d="M369 1483 c-13 -16 -12 -17 4 -4 9 7 17 15 17 17 0 8 -8 3 -21 -13z"/>
<path d="M335 1480 c3 -5 8 -10 11 -10 2 0 4 5 4 10 0 6 -5 10 -11 10 -5 0 -7
-4 -4 -10z"/>
<path d="M3650 1459 c0 -5 5 -7 10 -4 6 3 10 8 10 11 0 2 -4 4 -10 4 -5 0 -10
-5 -10 -11z"/>
<path d="M350 1439 c0 -5 5 -7 10 -4 6 3 10 8 10 11 0 2 -4 4 -10 4 -5 0 -10
-5 -10 -11z"/>
<path d="M3313 1375 c0 -8 4 -12 9 -9 5 3 6 10 3 15 -9 13 -12 11 -12 -6z"/>
<path d="M3270 1242 c0 -5 7 -9 15 -9 8 0 12 4 9 9 -3 4 -9 8 -15 8 -5 0 -9
-4 -9 -8z"/>
<path d="M3210 1220 c0 -5 5 -10 11 -10 5 0 7 5 4 10 -3 6 -8 10 -11 10 -2 0
-4 -4 -4 -10z"/>
<path d="M3146 1198 c3 -5 10 -6 15 -3 13 9 11 12 -6 12 -8 0 -12 -4 -9 -9z"/>
<path d="M533 1185 c0 -8 4 -12 9 -9 5 3 6 10 3 15 -9 13 -12 11 -12 -6z"/>
<path d="M3867 1179 c7 -7 15 -10 18 -7 3 3 -2 9 -12 12 -14 6 -15 5 -6 -5z"/>
<path d="M3149 1163 c-13 -16 -12 -17 4 -4 9 7 17 15 17 17 0 8 -8 3 -21 -13z"/>
<path d="M6415 1169 c-4 -6 -5 -12 -2 -15 2 -3 7 2 10 11 7 17 1 20 -8 4z"/>
<path d="M6525 1160 c10 -11 20 -20 23 -20 3 0 -3 9 -13 20 -10 11 -20 20 -23
20 -3 0 3 -9 13 -20z"/>
<path d="M570 1139 c0 -5 5 -7 10 -4 6 3 10 8 10 11 0 2 -4 4 -10 4 -5 0 -10
-5 -10 -11z"/>
<path d="M3934 1116 c1 -8 5 -18 8 -22 4 -3 5 1 4 10 -1 8 -5 18 -8 22 -4 3
-5 -1 -4 -10z"/>
<path d="M675 1111 c-3 -5 -2 -12 3 -15 5 -3 9 1 9 9 0 17 -3 19 -12 6z"/>
<path d="M6313 1105 c0 -8 4 -12 9 -9 5 3 6 10 3 15 -9 13 -12 11 -12 -6z"/>
<path d="M6295 1060 c-3 -5 -1 -10 4 -10 6 0 11 5 11 10 0 6 -2 10 -4 10 -3 0
-8 -4 -11 -10z"/>
<path d="M2915 1020 c3 -5 8 -10 11 -10 2 0 4 5 4 10 0 6 -5 10 -11 10 -5 0
-7 -4 -4 -10z"/>
<path d="M6210 1019 c0 -5 5 -7 10 -4 6 3 10 8 10 11 0 2 -4 4 -10 4 -5 0 -10
-5 -10 -11z"/>
<path d="M2853 985 c0 -8 4 -12 9 -9 5 3 6 10 3 15 -9 13 -12 11 -12 -6z"/>
<path d="M6130 979 c0 -5 5 -7 10 -4 6 3 10 8 10 11 0 2 -4 4 -10 4 -5 0 -10
-5 -10 -11z"/>
<path d="M830 960 c0 -5 5 -10 11 -10 5 0 7 5 4 10 -3 6 -8 10 -11 10 -2 0 -4
-4 -4 -10z"/>
<path d="M910 960 c0 -5 5 -10 11 -10 5 0 7 5 4 10 -3 6 -8 10 -11 10 -2 0 -4
-4 -4 -10z"/>
<path d="M2745 959 c-3 -4 2 -6 10 -5 21 3 28 13 10 13 -9 0 -18 -4 -20 -8z"/>
<path d="M4215 940 c-3 -5 -1 -10 4 -10 6 0 11 5 11 10 0 6 -2 10 -4 10 -3 0
-8 -4 -11 -10z"/>
<path d="M1005 922 c4 -4 12 -7 18 -7 7 -1 11 -7 9 -14 -1 -7 2 -9 9 -6 13 9
-3 28 -27 31 -9 1 -13 -1 -9 -4z"/>
<path d="M2696 918 c3 -5 10 -6 15 -3 13 9 11 12 -6 12 -8 0 -12 -4 -9 -9z"/>
<path d="M5975 919 c-3 -4 2 -6 10 -5 21 3 28 13 10 13 -9 0 -18 -4 -20 -8z"/>
<path d="M970 899 c0 -5 5 -7 10 -4 6 3 10 8 10 11 0 2 -4 4 -10 4 -5 0 -10
-5 -10 -11z"/>
<path d="M4290 899 c0 -5 5 -7 10 -4 6 3 10 8 10 11 0 2 -4 4 -10 4 -5 0 -10
-5 -10 -11z"/>
<path d="M5956 887 c3 -10 9 -15 12 -12 3 3 0 11 -7 18 -10 9 -11 8 -5 -6z"/>
<path d="M5904 882 c4 -3 14 -7 22 -8 9 -1 13 0 10 4 -4 3 -14 7 -22 8 -9 1
-13 0 -10 -4z"/>
<path d="M2590 860 c0 -5 5 -10 11 -10 5 0 7 5 4 10 -3 6 -8 10 -11 10 -2 0
-4 -4 -4 -10z"/>
<path d="M5873 845 c0 -8 4 -12 9 -9 5 3 6 10 3 15 -9 13 -12 11 -12 -6z"/>
<path d="M5911 847 c-8 -10 -7 -14 2 -14 8 0 14 6 14 14 0 7 -1 13 -2 13 -2 0
-8 -6 -14 -13z"/>
<path d="M4430 836 c7 -7 13 -7 20 0 6 6 3 10 -10 10 -13 0 -16 -4 -10 -10z"/>
<path d="M4470 841 c0 -6 4 -13 10 -16 6 -3 7 1 4 9 -7 18 -14 21 -14 7z"/>
<path d="M2570 825 c0 -7 30 -13 34 -7 3 4 -4 9 -15 9 -10 1 -19 0 -19 -2z"/>
<path d="M2553 795 c0 -8 4 -12 9 -9 5 3 6 10 3 15 -9 13 -12 11 -12 -6z"/>
<path d="M4510 801 c0 -6 4 -13 10 -16 6 -3 7 1 4 9 -7 18 -14 21 -14 7z"/>
<path d="M5736 782 c-2 -4 -1 -14 4 -22 7 -11 9 -9 7 8 -1 24 -3 26 -11 14z"/>
<path d="M5770 779 c0 -5 5 -7 10 -4 6 3 10 8 10 11 0 2 -4 4 -10 4 -5 0 -10
-5 -10 -11z"/>
<path d="M5815 780 c3 -5 8 -10 11 -10 2 0 4 5 4 10 0 6 -5 10 -11 10 -5 0 -7
-4 -4 -10z"/>
<path d="M2400 760 c-9 -6 -10 -10 -3 -10 6 0 15 5 18 10 8 12 4 12 -15 0z"/>
<path d="M2440 760 c-9 -6 -10 -10 -3 -10 6 0 15 5 18 10 8 12 4 12 -15 0z"/>
<path d="M1255 751 c-3 -5 -2 -12 3 -15 5 -3 9 1 9 9 0 17 -3 19 -12 6z"/>
<path d="M4576 738 c3 -5 10 -6 15 -3 13 9 11 12 -6 12 -8 0 -12 -4 -9 -9z"/>
<path d="M2359 713 c-13 -16 -12 -17 4 -4 16 13 21 21 13 21 -2 0 -10 -8 -17
-17z"/>
<path d="M2310 699 c0 -5 5 -7 10 -4 6 3 10 8 10 11 0 2 -4 4 -10 4 -5 0 -10
-5 -10 -11z"/>
<path d="M5626 699 c2 -4 13 -7 24 -6 23 2 17 10 -10 12 -10 1 -17 -2 -14 -6z"/>
<path d="M4553 685 c0 -8 4 -12 9 -9 5 3 6 10 3 15 -9 13 -12 11 -12 -6z"/>
<path d="M4730 696 c0 -2 7 -9 15 -16 9 -7 15 -8 15 -2 0 5 -7 12 -15 16 -8 3
-15 4 -15 2z"/>
<path d="M4787 639 c7 -7 15 -10 18 -7 3 3 -2 9 -12 12 -14 6 -15 5 -6 -5z"/>
<path d="M4795 600 c3 -5 8 -10 11 -10 2 0 4 5 4 10 0 6 -5 10 -11 10 -5 0 -7
-4 -4 -10z"/>
<path d="M5559 593 c-13 -16 -12 -17 4 -4 9 7 17 15 17 17 0 8 -8 3 -21 -13z"/>
<path d="M1535 580 c3 -5 8 -10 11 -10 2 0 4 5 4 10 0 6 -5 10 -11 10 -5 0 -7
-4 -4 -10z"/>
<path d="M2130 579 c0 -5 5 -7 10 -4 6 3 10 8 10 11 0 2 -4 4 -10 4 -5 0 -10
-5 -10 -11z"/>
<path d="M5390 577 c0 -2 6 -10 14 -16 11 -9 16 -9 22 1 4 7 4 10 -1 6 -4 -4
-14 -3 -22 3 -7 6 -13 9 -13 6z"/>
<path d="M2040 560 c-9 -6 -10 -10 -3 -10 6 0 15 5 18 10 8 12 4 12 -15 0z"/>
<path d="M1556 547 c3 -10 9 -15 12 -12 3 3 0 11 -7 18 -10 9 -11 8 -5 -6z"/>
<path d="M5353 545 c0 -8 4 -12 9 -9 5 3 6 10 3 15 -9 13 -12 11 -12 -6z"/>
<path d="M1667 539 c7 -7 15 -10 18 -7 3 3 -2 9 -12 12 -14 6 -15 5 -6 -5z"/>
<path d="M4886 538 c3 -5 10 -6 15 -3 13 9 11 12 -6 12 -8 0 -12 -4 -9 -9z"/>
<path d="M1976 518 c3 -5 10 -6 15 -3 13 9 11 12 -6 12 -8 0 -12 -4 -9 -9z"/>
<path d="M2021 516 c-9 -11 -9 -16 1 -22 7 -4 10 -4 6 1 -4 4 -3 14 3 22 6 7
9 13 6 13 -2 0 -10 -6 -16 -14z"/>
<path d="M5295 511 c-3 -5 -2 -12 3 -15 5 -3 9 1 9 9 0 17 -3 19 -12 6z"/>
<path d="M5010 499 c0 -5 5 -7 10 -4 6 3 10 8 10 11 0 2 -4 4 -10 4 -5 0 -10
-5 -10 -11z"/>
<path d="M5093 449 c-2 -23 3 -25 10 -4 4 8 3 16 -1 19 -4 3 -9 -4 -9 -15z"/>
</g>
</svg>
